<svg width="56" height="56" viewBox="0 0 56 56" fill="none" xmlns="http://www.w3.org/2000/svg">
<path d="M52.8375 7.52806L50.4445 5.42089L52.8375 3.31414C53.2096 2.98602 53.3369 2.4746 53.1622 2.01062C52.9866 1.5462 52.5529 1.24627 52.0569 1.24627H42.1542V0.820738C42.1542 0.367431 41.7868 0 41.3335 0C40.8801 0 40.5127 0.367431 40.5127 0.820738V11.8898L33.7721 15.55C33.7349 15.2535 33.646 14.9621 33.5055 14.6878L32.5557 12.8336C31.9037 11.5604 30.3374 11.0558 29.0651 11.7074L28.3307 12.0833C27.7137 12.3995 27.257 12.9361 27.0442 13.5958C26.8315 14.255 26.8883 14.9579 27.2045 15.5744L28.1542 17.429C28.376 17.8618 28.7037 18.2045 29.089 18.4446C28.5849 19.1235 28.3456 19.9583 28.0995 20.8256L27.9227 21.452C27.7992 21.8882 28.053 22.3419 28.4892 22.465C28.5635 22.4863 28.6387 22.4962 28.7126 22.4962C29.0707 22.4962 29.3996 22.2603 29.5022 21.8985L29.6791 21.2734C30.0388 20.0049 30.2597 19.3256 30.9629 18.9436L32.2237 18.2588L32.3792 18.1793C32.4309 18.1528 32.4792 18.1229 32.5284 18.0934L41.5142 13.2138C41.4574 14.3371 40.8528 15.3983 39.8573 16.0029L34.0139 19.5533C34.0071 19.5571 34.0002 19.561 33.9938 19.5653L32.175 20.6701C31.7879 20.9055 31.6645 21.4105 31.8999 21.7981C32.1216 22.1633 32.583 22.2932 32.9594 22.1099L31.5794 26.2816L30.5707 26.6951L27.8278 27.8192L28.6182 25.025C28.7413 24.5888 28.4879 24.1351 28.0517 24.0116C27.615 23.8877 27.1617 24.1419 27.0383 24.5781L25.7894 28.9946C25.7732 29.0514 25.7625 29.1138 25.7599 29.1732L25.4331 35.1768C25.4233 35.4058 25.472 35.8386 25.366 36.0621L21.7361 43.6986H19.0983C17.553 43.6986 16.296 44.9556 16.296 46.5005V48.8696C15.9423 48.7077 15.5496 48.6171 15.1356 48.6171H8.43685C6.89193 48.6171 5.63497 49.8736 5.63497 51.419V54.3584H3.66452C3.21121 54.3584 2.84378 54.7258 2.84378 55.1791C2.84378 55.6325 3.21121 55.9999 3.66452 55.9999H52.056C52.5093 55.9999 52.8768 55.6325 52.8768 55.1791C52.8768 54.7258 52.5093 54.3584 52.056 54.3584H49.9215V33.2034C49.9215 31.6584 48.6646 30.4015 47.1196 30.4015H42.1542V16.0832C43.0642 14.8498 43.4013 13.2331 42.9788 11.6967C42.9126 11.4553 42.7395 11.2571 42.5088 11.1592C42.3956 11.1109 42.2742 11.0896 42.1542 11.0943V9.59593H52.0565C52.5529 9.59593 52.9866 9.296 53.1617 8.83201C53.3369 8.36802 53.2096 7.85619 52.8375 7.52806V7.52806ZM28.6067 14.0999C28.6849 13.8577 28.8523 13.6603 29.0788 13.5445L29.8132 13.1686C29.9516 13.0976 30.0995 13.0639 30.2456 13.0639C30.5917 13.0639 30.9262 13.2531 31.0945 13.5817L32.0447 15.4364C32.2665 15.8696 32.1229 16.3947 31.7286 16.66L31.4611 16.8048L30.8967 17.0941C30.4297 17.3333 29.8547 17.1479 29.6154 16.6805L28.6652 14.8263C28.5494 14.5998 28.5285 14.3418 28.6067 14.0999V14.0999ZM26.9575 43.9511C26.6785 43.8238 26.3752 43.7405 26.0564 43.711L26.9575 42.5143V43.9511ZM30.8544 37.3378C31.2492 36.8649 31.3581 36.3124 31.4461 35.8672C31.4684 35.7613 31.8734 33.549 31.8734 33.549C31.8734 33.549 32.2566 33.7878 32.2968 33.8049C32.3246 33.8173 32.3442 33.8447 32.3472 33.8767L32.7937 38.4153H30.0431L30.8544 37.3378ZM35.7079 32.8077L35.0149 38.4115H34.4428L33.981 33.7161C33.922 33.1145 33.5537 32.5894 33.0141 32.3284L32.1887 31.805L32.7386 28.7574C32.7386 28.7574 35.0551 31.5093 35.1089 31.5794C35.5883 32.2028 35.7523 32.4523 35.7079 32.8077ZM26.8426 36.7798C27.0083 36.2808 27.0853 35.7728 27.0724 35.2563L27.3707 29.7807L31.1667 28.2251L30.4767 32.0472C30.4746 32.0575 30.4725 32.0682 30.4712 32.0784L29.9004 35.2388C29.826 35.566 29.7611 36.0625 29.5569 36.3321L24.0108 43.6986H23.5536L26.8426 36.7798ZM7.27645 51.4185C7.27645 50.7789 7.79683 50.2586 8.43685 50.2586H15.1356C15.7756 50.2586 16.2965 50.7789 16.2965 51.4185V54.3584H7.27645V51.4185ZM17.9375 51.4185V46.5005C17.9375 45.8605 18.4583 45.3401 19.0983 45.3401H25.7971C26.4371 45.3401 26.9575 45.8605 26.9575 46.5005V54.3584H17.9379V51.4185H17.9375ZM48.28 33.2034V54.3584H39.2605V49.4374C39.2605 48.9841 38.893 48.6167 38.4397 48.6167C37.986 48.6167 37.6186 48.9841 37.6186 49.4374V54.3584H28.599V41.2168C28.599 40.5772 29.1194 40.0568 29.7594 40.0568H36.4582C37.0982 40.0568 37.6186 40.5772 37.6186 41.2168V45.3311C37.6186 45.7845 37.986 46.1519 38.4393 46.1519C38.893 46.1519 39.26 45.7845 39.26 45.3311V33.2034C39.26 32.5633 39.7808 32.043 40.4209 32.043H41.3249C41.3275 32.043 41.3305 32.0434 41.3335 32.0434C41.336 32.0434 41.339 32.043 41.3416 32.043H47.1192C47.7592 32.043 48.28 32.5638 48.28 33.2034V33.2034ZM40.4209 30.4015C38.8759 30.4015 37.619 31.6584 37.619 33.2034V38.6678C37.325 38.5337 37.0046 38.4487 36.6675 38.4239L37.337 33.0098C37.4686 31.9545 36.9303 31.2551 36.4099 30.5784C36.3548 30.5066 33.1645 26.7186 33.1645 26.7186L35.1217 20.8013L40.5127 17.526V30.4015H40.4209ZM42.1542 7.95402V2.88818H50.8371L48.967 4.53478C48.7124 4.75908 48.5663 5.08208 48.5663 5.42131C48.5663 5.76055 48.7124 6.08354 48.967 6.30785L50.8371 7.95445H42.1542V7.95402Z" fill="#4A5E5E"/>
</svg>
